@startuml
class Location {
    + Id : int <<get>> <<set>>
    + WareHouseId : int? <<get>> <<set>>
    + Code : string? <<get>> <<set>>
    + Name : string? <<get>> <<set>>
    + IsDeleted : bool <<get>> <<set>> = false
    + Equals(other:Location?) : bool
}
class "IEquatable`1"<T> {
}
"IEquatable`1" "<Location>" <|-- Location
Location --> "wareHouse" Warehouse
Location o-> "CreatedAt" DateTime
Location o-> "UpdatedAt" DateTime
@enduml
