@startuml
class Supplier {
    + Id : int <<get>> <<set>>
    + Code : string? <<get>> <<set>>
    + Name : string? <<get>> <<set>>
    + Address : string? <<get>> <<set>>
    + AddressExtra : string? <<get>> <<set>>
    + City : string? <<get>> <<set>>
    + ZipCode : string? <<get>> <<set>>
    + Province : string? <<get>> <<set>>
    + Country : string? <<get>> <<set>>
    + ContactName : string? <<get>> <<set>>
    + PhoneNumber : string? <<get>> <<set>>
    + Reference : string? <<get>> <<set>>
    + IsDeleted : bool <<get>> <<set>> = false
    + Equals(other:Supplier?) : bool
}
class "IEquatable`1"<T> {
}
"IEquatable`1" "<Supplier>" <|-- Supplier
Supplier --> "CreatedAt" DateTime
Supplier --> "UpdatedAt" DateTime
@enduml
