@startuml
class Warehouse {
    + Id : int <<get>> <<set>>
    + Code : string? <<get>> <<set>>
    + Name : string? <<get>> <<set>>
    + Address : string? <<get>> <<set>>
    + Zip : string? <<get>> <<set>>
    + City : string? <<get>> <<set>>
    + Province : string? <<get>> <<set>>
    + Country : string? <<get>> <<set>>
    + ContactName : string? <<get>> <<set>>
    + ContactPhone : string? <<get>> <<set>>
    + ContactEmail : string? <<get>> <<set>>
    + IsDeleted : bool <<get>> <<set>> = false
    + Equals(other:Warehouse?) : bool
}
class "IEquatable`1"<T> {
}
"IEquatable`1" "<Warehouse>" <|-- Warehouse
Warehouse --> "CreatedAt" DateTime
Warehouse --> "UpdatedAt" DateTime
@enduml
